<svg id="visual" viewBox="0 0 900 600" width="900" height="600" xmlns="http://www.w3.org/2000/svg" xmlns:xlink="http://www.w3.org/1999/xlink" version="1.1"><g transform="translate(8.891118396064513 -59.27867484266534)"><path d="M159.6 -243.6C267.8 -213.9 458.7 -294.5 466.8 -272.2C475 -250 300.5 -125 240.8 -34.5C181 56 236 112 245.9 165.5C255.8 219.1 220.7 270.2 172.2 364.9C123.7 459.5 61.8 597.8 23.1 557.7C-15.6 517.7 -31.3 299.5 -117.9 226.8C-204.5 154.1 -362 227.1 -432.2 213.5C-502.4 200 -485.2 100 -476.4 5.1C-467.6 -89.8 -467.2 -179.7 -418 -229.6C-368.9 -279.5 -270.9 -289.6 -193.1 -336.8C-115.3 -384.1 -57.7 -468.5 -16 -440.8C25.7 -413.1 51.3 -273.2 159.6 -243.6" fill="#e1e1e1"></path></g></svg>