<svg id="visual" viewBox="0 0 900 600" width="900" height="600" xmlns="http://www.w3.org/2000/svg" xmlns:xlink="http://www.w3.org/1999/xlink" version="1.1"><path d="M0 43L21.5 46C43 49 86 55 128.8 57C171.7 59 214.3 57 257.2 54C300 51 343 47 385.8 45C428.7 43 471.3 43 514.2 48C557 53 600 63 642.8 69C685.7 75 728.3 77 771.2 75C814 73 857 67 878.5 64L900 61L900 0L878.5 0C857 0 814 0 771.2 0C728.3 0 685.7 0 642.8 0C600 0 557 0 514.2 0C471.3 0 428.7 0 385.8 0C343 0 300 0 257.2 0C214.3 0 171.7 0 128.8 0C86 0 43 0 21.5 0L0 0Z" fill="#b2cbdd"></path><path d="M0 103L21.5 106C43 109 86 115 128.8 115C171.7 115 214.3 109 257.2 108C300 107 343 111 385.8 113C428.7 115 471.3 115 514.2 117C557 119 600 123 642.8 130C685.7 137 728.3 147 771.2 148C814 149 857 141 878.5 137L900 133L900 59L878.5 62C857 65 814 71 771.2 73C728.3 75 685.7 73 642.8 67C600 61 557 51 514.2 46C471.3 41 428.7 41 385.8 43C343 45 300 49 257.2 52C214.3 55 171.7 57 128.8 55C86 53 43 47 21.5 44L0 41Z" fill="#96b8d0"></path><path d="M0 265L21.5 270C43 275 86 285 128.8 276C171.7 267 214.3 239 257.2 234C300 229 343 247 385.8 252C428.7 257 471.3 249 514.2 251C557 253 600 265 642.8 271C685.7 277 728.3 277 771.2 283C814 289 857 301 878.5 307L900 313L900 131L878.5 135C857 139 814 147 771.2 146C728.3 145 685.7 135 642.8 128C600 121 557 117 514.2 115C471.3 113 428.7 113 385.8 111C343 109 300 105 257.2 106C214.3 107 171.7 113 128.8 113C86 113 43 107 21.5 104L0 101Z" fill="#7494ac"></path><path d="M0 397L21.5 404C43 411 86 425 128.8 421C171.7 417 214.3 395 257.2 391C300 387 343 401 385.8 410C428.7 419 471.3 423 514.2 432C557 441 600 455 642.8 460C685.7 465 728.3 461 771.2 456C814 451 857 445 878.5 442L900 439L900 311L878.5 305C857 299 814 287 771.2 281C728.3 275 685.7 275 642.8 269C600 263 557 251 514.2 249C471.3 247 428.7 255 385.8 250C343 245 300 227 257.2 232C214.3 237 171.7 265 128.8 274C86 283 43 273 21.5 268L0 263Z" fill="#67849b"></path><path d="M0 439L21.5 445C43 451 86 463 128.8 462C171.7 461 214.3 447 257.2 445C300 443 343 453 385.8 462C428.7 471 471.3 479 514.2 486C557 493 600 499 642.8 500C685.7 501 728.3 497 771.2 492C814 487 857 481 878.5 478L900 475L900 437L878.5 440C857 443 814 449 771.2 454C728.3 459 685.7 463 642.8 458C600 453 557 439 514.2 430C471.3 421 428.7 417 385.8 408C343 399 300 385 257.2 389C214.3 393 171.7 415 128.8 419C86 423 43 409 21.5 402L0 395Z" fill="#7494ac"></path><path d="M0 559L21.5 560C43 561 86 563 128.8 561C171.7 559 214.3 553 257.2 554C300 555 343 563 385.8 563C428.7 563 471.3 555 514.2 555C557 555 600 563 642.8 567C685.7 571 728.3 571 771.2 567C814 563 857 555 878.5 551L900 547L900 473L878.5 476C857 479 814 485 771.2 490C728.3 495 685.7 499 642.8 498C600 497 557 491 514.2 484C471.3 477 428.7 469 385.8 460C343 451 300 441 257.2 443C214.3 445 171.7 459 128.8 460C86 461 43 449 21.5 443L0 437Z" fill="#96b8d0"></path><path d="M0 601L21.5 601C43 601 86 601 128.8 601C171.7 601 214.3 601 257.2 601C300 601 343 601 385.8 601C428.7 601 471.3 601 514.2 601C557 601 600 601 642.8 601C685.7 601 728.3 601 771.2 601C814 601 857 601 878.5 601L900 601L900 545L878.5 549C857 553 814 561 771.2 565C728.3 569 685.7 569 642.8 565C600 561 557 553 514.2 553C471.3 553 428.7 561 385.8 561C343 561 300 553 257.2 552C214.3 551 171.7 557 128.8 559C86 561 43 559 21.5 558L0 557Z" fill="#b2cbdd"></path></svg>